<svg viewBox="0 0 24 24" xmlns="http://www.w3.org/2000/svg" xmlns:xlink="http://www.w3.org/1999/xlink" width="24.000000" height="24.000000" fill="none">
	<rect id="icon" width="24.000000" height="24.000000" x="0.000000" y="0.000000" />
	<g id="base">
		<path id="Вектор 12" d="M4.57815 15.533C6.38395 16.5538 8.9979 17.1802 12.0073 17.1802C17.7 17.1802 21.9951 14.9591 21.9951 11.9975C21.9951 11.1101 21.6056 10.2912 20.914 9.58029C21.6055 8.86933 22 8.0505 22 7.16793C22 4.22113 17.7049 2 12.0024 2C6.29997 2 2.00974 4.22113 2.00974 7.16793C2.00974 8.0456 2.39932 8.85952 3.09082 9.57048C2.39445 10.2863 2 11.1003 2 11.9926C2 12.885 2.39932 13.7088 3.10056 14.4246C2.40419 15.1356 2 15.9495 2 16.8419C2 19.7789 6.31946 22 12.0122 22C17.596 22 21.8352 19.863 21.9953 17.0096C21.9984 16.9539 22 16.898 22 16.8419C22 16.5085 21.9513 16.1996 21.8101 15.8858L21.0748 16.4594L20.9725 16.5351L20.1739 17.1263C19.7697 18.6315 16.4242 20.2054 12.0122 20.2054C7.31775 20.2054 3.78232 18.4158 3.78232 16.837C3.78232 16.6622 3.82683 16.4836 3.91207 16.3045C4.03974 16.0362 4.25878 15.7669 4.55661 15.5082L4.55174 15.518C4.56052 15.523 4.56933 15.528 4.57815 15.533ZM4.65509 15.3367L4.94756 14.8235C4.75942 14.7205 4.58351 14.6149 4.41984 14.5068L4.05877 14.8754L4.65509 15.3367ZM20.2225 7.16793C20.2225 5.57441 16.7115 3.78965 12.0073 3.78965C7.30314 3.78965 3.78719 5.57441 3.78719 7.16793C3.78719 8.76146 7.30801 10.5462 12.0073 10.5462C16.7066 10.5462 20.2225 8.76146 20.2225 7.16793ZM4.53713 10.6688C4.05016 11.1052 3.77745 11.5563 3.77745 11.9975C3.77745 13.596 7.31288 15.3856 12.0073 15.3856C16.7017 15.3856 20.2128 13.5911 20.2128 11.9926C20.2128 11.5514 19.9401 11.1003 19.4531 10.6737C17.6513 11.7034 15.0363 12.3359 12.0024 12.3359C8.96859 12.3359 6.33893 11.7034 4.53713 10.6688Z" fill="rgb(34,51,59)" fill-rule="evenodd" />
		<path id="Вектор 13" d="M4 15L5 15" stroke="rgb(34,51,59)" stroke-width="1.000000" />
	</g>
</svg>
