<svg viewBox="0 0 24 24" xmlns="http://www.w3.org/2000/svg" xmlns:xlink="http://www.w3.org/1999/xlink" width="24.000000" height="24.000000" fill="none">
	<rect id="icon" width="24.000000" height="24.000000" x="0.000000" y="0.000000" />
	<g id="home">
		<path id="Вектор 6" d="M20.1494 14.5803L20.5391 14.5803C21.7596 14.5803 22.3777 13.0991 21.5273 12.2176L13.0786 3.47354C12.4644 2.84215 11.4565 2.84215 10.8424 3.47354L2.39363 12.2176C1.54325 13.0991 2.16135 14.5803 3.38181 14.5803L4.77156 14.5803L4.77156 20.2151C4.77156 20.6479 5.12195 21.0013 5.54715 21.0013L8.7046 21.0013C9.13373 21.0013 9.48018 20.6479 9.48018 20.2151L9.48018 15.3983C9.48018 14.9456 9.84632 14.5803 10.2912 14.5803L13.6298 14.5803C14.0786 14.5803 14.4408 14.9456 14.4408 15.3983L14.4408 20.2151C14.4408 20.6479 14.7872 21.0013 15.2164 21.0013L18.3738 21.0013C18.799 21.0013 19.1494 20.6479 19.1494 20.219L19.1494 14.5803L20.1494 14.5803ZM12.3594 4.16841C12.3602 4.1692 12.361 4.17 12.3618 4.1708L20.8076 12.9118C20.8669 12.9733 20.9035 13.0393 20.9174 13.1098C20.9319 13.183 20.9218 13.2611 20.8871 13.3439C20.8527 13.4262 20.8047 13.4871 20.7429 13.5264C20.6864 13.5623 20.6185 13.5803 20.5391 13.5803L18.1494 13.5803L18.1494 20.0013L15.4408 20.0013L15.4408 15.3983C15.4408 15.1449 15.3958 14.9102 15.3058 14.6943C15.218 14.4835 15.0873 14.2906 14.9137 14.1155C14.7366 13.9368 14.5409 13.8029 14.3266 13.7137C14.1128 13.6248 13.8805 13.5803 13.6298 13.5803L10.2912 13.5803C10.0447 13.5803 9.81593 13.6235 9.60489 13.71C9.3878 13.799 9.18947 13.9338 9.0099 14.1143C8.83365 14.2915 8.70139 14.4868 8.6131 14.7004C8.52449 14.9147 8.48018 15.1473 8.48018 15.3983L8.48018 20.0013L5.77156 20.0013L5.77156 13.5803L3.38181 13.5803C3.30245 13.5803 3.23453 13.5623 3.17806 13.5264C3.1163 13.4871 3.06822 13.4262 3.03383 13.3439C2.99902 13.2606 2.98894 13.1823 3.0036 13.1088C3.01755 13.0389 3.05395 12.9734 3.11278 12.9124L4.93957 11.0218C4.96129 11.1241 4.99276 11.2222 5.03398 11.3159C5.11411 11.4982 5.23108 11.6643 5.3849 11.8142C5.53978 11.965 5.70999 12.078 5.89552 12.153C6.07931 12.2274 6.27815 12.2645 6.49202 12.2645C6.72589 12.2645 6.94079 12.2214 7.13674 12.1352C7.32098 12.0542 7.48846 11.935 7.63918 11.7778L7.63962 11.7773L10.6136 8.67017C10.7612 8.51346 10.8713 8.34211 10.9439 8.15612C10.9847 8.0517 11.0136 7.94268 11.0307 7.82903C11.1265 7.80986 11.2187 7.78199 11.3073 7.74543C11.4958 7.66767 11.668 7.55059 11.824 7.3942C11.8246 7.39364 11.8251 7.39308 11.8257 7.39252L12.1706 7.0486C12.3255 6.89237 12.4416 6.7202 12.519 6.53209C12.5961 6.34447 12.6347 6.14098 12.6347 5.92163C12.6347 5.70228 12.5961 5.49879 12.519 5.31116C12.4416 5.12305 12.3255 4.95089 12.1706 4.79466C12.0168 4.63951 11.8468 4.52287 11.6606 4.44477C11.5703 4.40684 11.4761 4.378 11.3781 4.35824L11.5592 4.1708C11.617 4.11137 11.6811 4.06745 11.7514 4.03904C11.8158 4.01301 11.8855 4 11.9605 4C12.0354 4 12.1051 4.01301 12.1695 4.03904C12.2389 4.06707 12.3022 4.11019 12.3594 4.16841ZM9.28574 6.99996C9.4838 6.939 9.7089 6.98441 9.86994 7.13873C10.0263 7.29373 10.081 7.51528 10.0316 7.71623C10.0076 7.81386 9.95907 7.90663 9.88569 7.98454L6.91721 11.0859C6.80304 11.205 6.6495 11.2645 6.49202 11.2645C6.34635 11.2645 6.19675 11.209 6.08257 11.0978C5.85029 10.8714 5.84242 10.4942 6.06683 10.2559L9.0353 7.15461C9.10672 7.08005 9.19328 7.02842 9.28574 6.99996ZM10.1305 6.1168C10.0807 6.31357 10.1317 6.53045 10.2833 6.68604C10.4014 6.80119 10.5471 6.86076 10.7006 6.86076C10.7596 6.86076 10.8181 6.85196 10.8741 6.8346C10.9639 6.80677 11.0477 6.75694 11.118 6.68604L11.4605 6.34453C11.6928 6.11025 11.6928 5.73301 11.4605 5.49872C11.2321 5.26841 10.8581 5.26841 10.6258 5.49872L10.2833 5.84419C10.2066 5.92289 10.1557 6.01727 10.1305 6.1168Z" fill="rgb(34,51,59)" fill-rule="evenodd" />
	</g>
</svg>
