<svg viewBox="0 0 24 24" xmlns="http://www.w3.org/2000/svg" xmlns:xlink="http://www.w3.org/1999/xlink" width="24.000000" height="24.000000" fill="none">
	<rect id="icon" width="24.000000" height="24.000000" x="0.000000" y="0.000000" />
	<g id="loop">
		<g id="Группа 1">
			<path id="Вектор 8" d="M15.4555 14.173C17.7742 11.2211 17.5768 6.92547 14.8548 4.20449C13.435 2.78522 11.5406 2 9.52849 2C7.51641 2 5.62195 2.78522 4.20215 4.20449C1.26595 7.13962 1.26595 11.9223 4.20215 14.8574C5.64295 16.2977 7.58362 17.0619 9.54529 17.0619C10.2864 17.0619 11.0296 16.9525 11.7509 16.7309C12.068 16.6334 12.3808 16.5143 12.6873 16.3733L12.2674 15.4658L12.116 15.1388C9.77632 16.2179 6.98293 15.7182 5.15988 13.8959C2.75715 11.4898 2.75715 7.57632 5.16409 5.16607C6.33185 3.99874 7.88186 3.35629 9.52849 3.35629C11.1751 3.35629 12.7293 3.99874 13.8929 5.16607C16.2998 7.57212 16.2998 11.4898 13.8929 13.8959C13.54 14.2528 13.54 14.8239 13.8929 15.1808L20.45 21.7355C20.6264 21.9118 20.8574 22 21.0927 22C21.3279 22 21.5589 21.9118 21.7354 21.7355C22.0882 21.3827 22.0882 20.8075 21.7354 20.4548L21.7354 20.4506L15.4555 14.173Z" fill="rgb(34,51,59)" fill-rule="evenodd" />
			<path id="Вектор 9" d="M13.6955 9.41549C13.6535 9.42809 13.6073 9.42809 13.5653 9.42809C13.246 9.42809 12.9604 9.20134 12.8974 8.87801C12.7671 8.21037 12.4437 7.59731 11.9564 7.11022C10.9567 6.11085 9.41928 5.82531 8.12971 6.40058C7.78526 6.55175 7.382 6.40058 7.23078 6.05626C7.07956 5.71194 7.23078 5.30883 7.57523 5.15767C9.37728 4.35145 11.5238 4.75036 12.9184 6.14444C13.5947 6.82468 14.0525 7.67709 14.2331 8.61767C14.3046 8.98719 14.0651 9.3441 13.6955 9.41549ZM7.98789 6.06857C7.98646 6.06921 7.98504 6.06984 7.98361 6.07048C7.98504 6.06985 7.98647 6.06921 7.98789 6.06857Z" fill="rgb(34,51,59)" fill-rule="evenodd" />
		</g>
	</g>
</svg>
