<svg viewBox="0 0 24 24" xmlns="http://www.w3.org/2000/svg" xmlns:xlink="http://www.w3.org/1999/xlink" width="24.000000" height="24.000000" fill="none">
	<rect id="pencil" width="24.000000" height="24.000000" x="0.000000" y="0.000000" />
	<g id="Layer_1-2">
		<g id="Группа 2">
			<path id="Вектор 10" d="M12.4111 6.04524L12.6587 5.79756C12.9137 5.5425 13.3307 5.5425 13.5857 5.79756L13.5817 5.80161L14.2888 6.50873L18.1967 10.417C18.4517 10.6721 18.4517 11.0891 18.1967 11.3441L9.52937 20.0081C9.40388 20.1376 9.2379 20.2024 9.06787 20.2024C8.89784 20.2024 8.73186 20.1376 8.60232 20.0081L8.44849 19.8542L7.99643 19.4021L7.07551 18.4811L5.51858 16.9241L4.7322 16.1376L4.36922 17.1889L3.49643 19.7167L3.49636 19.7169L3.3315 20.1943C3.26268 20.3927 3.37199 20.5303 3.42057 20.5789C3.46914 20.6275 3.60678 20.7368 3.80515 20.668L4.28257 20.5032L4.28281 20.5031L6.81061 19.6305L6.99517 19.5668L7.09698 19.8607L7.12675 19.9467L7.42428 20.8057L6.47902 21.132L4.23426 21.9069C4.05209 21.9676 3.86587 22 3.67965 22C3.24244 22 2.81738 21.8299 2.49352 21.5061C2.03606 21.0486 1.88223 20.3806 2.09274 19.7652L3.76871 14.919C3.77681 14.8907 3.79705 14.8623 3.8092 14.834L3.8092 14.8259C3.8092 14.8218 3.81325 14.8178 3.81325 14.8138C3.83753 14.6842 3.89826 14.5587 3.99542 14.4656L12.4111 6.04524ZM6.49064 13.3836L4.94194 14.9331L9.06599 19.0575L17.246 10.8805L14.837 8.4713C14.8311 8.49355 14.8247 8.51563 14.8178 8.53755C14.744 8.77113 14.6095 8.98553 14.4143 9.18075L9.23316 14.3583C9.0863 14.5085 8.92366 14.6232 8.74525 14.7022C8.54705 14.7901 8.32938 14.834 8.09224 14.834C7.8551 14.834 7.63743 14.7901 7.43922 14.7022C7.26152 14.6235 7.09946 14.5094 6.95305 14.36C6.79844 14.206 6.68205 14.0358 6.60388 13.8497C6.54277 13.7041 6.50502 13.5487 6.49064 13.3836ZM7.66313 13.6559C7.78053 13.7773 7.93841 13.834 8.09224 13.834C8.24608 13.834 8.40396 13.7773 8.52136 13.6559L13.7072 8.47367C13.8529 8.32792 13.9055 8.12549 13.8691 7.93521C13.8529 7.8178 13.7962 7.70444 13.7072 7.61537C13.6181 7.5263 13.5048 7.46962 13.3833 7.44938C13.193 7.41294 12.9906 7.46962 12.8449 7.61537L7.66313 12.7976C7.42428 13.0364 7.42428 13.421 7.66313 13.6559ZM8.82083 19.3026C8.81756 19.3058 8.81431 19.309 8.8111 19.3123L8.82083 19.3026Z" fill="rgb(34,51,59)" fill-rule="evenodd" />
			<path id="Вектор 11" d="M18.8565 2.62348L21.3745 5.1417C22.2085 5.97571 22.2085 7.33198 21.3745 8.16599L20.1803 9.36032C20.0508 9.48988 19.8848 9.55466 19.7148 9.55466C19.5447 9.55466 19.3788 9.48988 19.2492 9.36032L14.6383 4.74899C14.5128 4.62348 14.4439 4.45749 14.4439 4.2834C14.4439 4.10931 14.5128 3.94332 14.6383 3.82186L15.8325 2.62348C16.2373 2.22267 16.7757 2 17.3465 2C17.9173 2 18.4517 2.22267 18.8565 2.62348ZM18.1514 3.3326C18.0345 3.21719 17.9057 3.13181 17.7652 3.07647C17.6357 3.02549 17.4961 3 17.3465 3C17.191 3 17.0464 3.0271 16.9129 3.08129C16.7757 3.13697 16.6501 3.22124 16.5361 3.3341L15.5885 4.28501L19.7148 8.41164L20.6674 7.45891C20.7766 7.34971 20.8589 7.2292 20.9143 7.09738C20.9714 6.96154 21 6.8137 21 6.65385C21 6.49399 20.9714 6.34615 20.9143 6.21031C20.8589 6.07849 20.7766 5.95798 20.6674 5.84878L18.1514 3.3326ZM15.3557 4.51858L15.3466 4.52774C15.3497 4.52473 15.3527 4.52168 15.3557 4.51858Z" fill="rgb(34,51,59)" fill-rule="evenodd" />
		</g>
	</g>
</svg>
