<svg viewBox="0 0 24 24" xmlns="http://www.w3.org/2000/svg" xmlns:xlink="http://www.w3.org/1999/xlink" width="24.000000" height="24.000000" fill="none">
	<rect id="icon" width="24.000000" height="24.000000" x="0.000000" y="0.000000" />
	<g id="vector">
		<g id="Группа 3">
			<path id="Вектор 14" d="M19.5153 5.711L20.8254 5.711C21.4549 5.711 21.9935 6.06024 21.9935 6.51694C21.9935 6.97364 21.4549 7.34527 20.8254 7.34527L18.5153 7.34527L18.5153 5.711L19.5153 5.711Z" fill="rgb(34,51,59)" fill-rule="evenodd" />
			<path id="Вектор 15" d="M7.68424 4.71099L9.67683 3.40958C10.1506 3.10063 10.1765 2.58125 9.72226 2.25439C9.2745 1.92754 8.52174 1.9141 8.04802 2.22305L2.36989 5.92591C2.12979 6.08262 2 6.29754 2 6.52141C2 6.74529 2.12979 6.9602 2.36989 7.11691L7.0416 10.1669L8.03949 10.8184L8.04153 10.8198L8.04153 10.8153L8.04358 10.8166C8.27042 10.9635 8.56157 11.0392 8.85918 11.0392C8.92037 11.0392 8.98131 11.036 9.04151 11.0297C9.29415 11.0033 9.5336 10.9214 9.72226 10.784C10.17 10.4571 10.1506 9.93772 9.67683 9.62877L7.71084 8.34527L6.17911 7.34527L16.1467 7.34527L16.1467 5.71099L6.15315 5.71099L7.68424 4.71099Z" fill="rgb(34,51,59)" fill-rule="evenodd" />
			<path id="Вектор 16" d="M3.18107 18.2927C2.51917 18.2927 2.013 17.9434 2.013 17.4867L2.013 17.4867C2.013 17.03 2.51917 16.6584 3.18107 16.6584L5.49126 16.6584L5.49126 18.2927L3.18107 18.2927Z" fill="rgb(34,51,59)" fill-rule="evenodd" />
			<path id="Вектор 17" d="M21.6236 16.8867L15.952 13.1839C15.4782 12.8749 14.732 12.8884 14.2777 13.2152C13.83 13.5421 13.8494 14.0614 14.3231 14.3704L16.2891 15.6539L17.8209 16.6539L7.8598 16.6539L7.8598 18.2882L17.8468 18.2882L16.3157 19.2882L14.3231 20.5896C13.8494 20.8985 13.8235 21.4179 14.2777 21.7448C14.5113 21.9149 14.8228 22 15.1408 22C15.4328 22 15.7248 21.9239 15.9584 21.7761L21.6209 18.0792L21.6301 18.0733C21.8702 17.9165 22 17.7016 22 17.4778C22 17.456 21.9987 17.4343 21.9963 17.4128C21.9737 17.2127 21.8469 17.0237 21.6301 16.8822L21.6236 16.8867Z" fill="rgb(34,51,59)" fill-rule="evenodd" />
		</g>
	</g>
</svg>
