<svg viewBox="0 0 24 24" xmlns="http://www.w3.org/2000/svg" xmlns:xlink="http://www.w3.org/1999/xlink" width="24.000000" height="24.000000" fill="none">
	<rect id="icon" width="24.000000" height="24.000000" x="0.000000" y="0.000000" />
	<g id="star">
		<path id="Вектор 7" d="M20.1392 10.6909L16.8541 13.6261C16.4038 14.0292 16.2126 14.654 16.3486 15.2521L16.7932 17.2012L17.0156 18.1763L17.986 17.9338L18.2562 17.8662L17.5892 14.942C17.5594 14.8312 17.5977 14.7116 17.6827 14.6362L21.4513 11.2689C21.9356 10.8392 22.1183 10.1524 21.9229 9.51883C21.7274 8.88968 21.1878 8.44661 20.5548 8.39344L15.605 7.97696C15.4946 7.9681 15.3968 7.89278 15.3544 7.78644L13.4467 3.01019C13.2045 2.39433 12.6309 2 11.9979 2C11.3648 2 10.7955 2.39876 10.5491 3.01019L8.64139 7.78644C8.59891 7.89721 8.50119 7.9681 8.39072 7.97696L3.44522 8.39344C2.81216 8.44661 2.27258 8.88968 2.07714 9.51883C1.88169 10.148 2.06439 10.8347 2.54874 11.2689L6.3216 14.6407C6.40657 14.716 6.44481 14.8312 6.41932 14.9464L5.26792 19.9796C5.18833 20.3258 5.21949 20.6784 5.34448 20.9911C5.45302 21.2627 5.6323 21.5042 5.87123 21.6854C6.14498 21.8918 6.46464 21.9981 6.7847 22L6.7932 22L6.7847 21.9911L6.7932 21.9911C7.07495 21.9895 7.35232 21.9098 7.6047 21.7519L7.81364 21.619L11.8407 19.058C11.9384 18.996 12.0574 18.996 12.1508 19.058L15.5424 21.2149L16.3868 21.7519L16.8917 20.8879L17.0496 20.6176L12.8136 17.9238C12.3123 17.6048 11.6835 17.6048 11.1779 17.9238L7.53508 20.2404L7.49442 20.2663L6.94191 20.6176C6.7932 20.7151 6.66149 20.6398 6.61476 20.6043C6.56802 20.5645 6.45755 20.4626 6.50004 20.2809L6.64003 19.6684L6.65174 19.6172L7.65144 15.2432C7.7874 14.6451 7.59621 14.0248 7.14585 13.6216L3.86089 10.6865L3.83732 10.6654L3.37724 10.2543C3.24128 10.1303 3.27102 9.97962 3.28802 9.92202C3.30926 9.86442 3.36874 9.72264 3.54719 9.70935L4.17492 9.65649L4.206 9.65387L8.49269 9.29287C9.08326 9.24413 9.58885 8.86309 9.81828 8.29154L11.4615 4.17731L11.4848 4.11913L11.726 3.51529C11.7939 3.34249 11.9341 3.32477 11.9979 3.32477C12.0616 3.32477 12.2061 3.34249 12.274 3.51529L12.5146 4.11816L12.5383 4.17747L14.1817 8.29597C14.4111 8.86309 14.9167 9.24856 15.5073 9.2973L19.7939 9.65829L19.8238 9.66081L20.4528 9.71378C20.6313 9.72707 20.695 9.86885 20.712 9.92645C20.729 9.98848 20.7587 10.1391 20.6228 10.2588L20.1647 10.668L20.1392 10.6909ZM20.3592 10.7094C20.3656 10.71 20.372 10.7105 20.3785 10.711L20.3592 10.7094ZM3.65069 10.7042L3.6311 10.7058C3.63769 10.7053 3.64422 10.7048 3.65069 10.7042ZM6.41842 19.7656C6.41017 19.7707 6.40193 19.7759 6.39369 19.7813L6.41842 19.7656Z" fill="rgb(34,51,59)" fill-rule="evenodd" />
	</g>
</svg>
